<?xml version="1.0" standalone="no"?>
<!DOCTYPE svg PUBLIC "-//W3C//DTD SVG 20010904//EN"
 "http://www.w3.org/TR/2001/REC-SVG-20010904/DTD/svg10.dtd">
<svg version="1.0" xmlns="http://www.w3.org/2000/svg"
 width="512.000000pt" height="512.000000pt" viewBox="0 0 512.000000 512.000000"
 preserveAspectRatio="xMidYMid meet">

<g transform="translate(0.000000,512.000000) scale(0.100000,-0.100000)"
fill="#000000" stroke="none">
<path d="M1640 3962 c0 -10 56 -100 125 -199 l125 -182 -1 -1058 0 -1058 -150
-129 c-82 -71 -149 -135 -149 -143 0 -11 80 -13 440 -13 352 0 440 3 440 13 0
7 -67 71 -150 142 l-149 130 0 860 -1 860 116 -220 c63 -121 275 -527 471
-903 l357 -683 33 3 34 3 470 875 c259 481 477 886 484 900 12 21 14 -96 14
-835 l0 -860 -149 -128 c-83 -71 -150 -135 -150 -143 0 -12 94 -14 625 -14
533 0 625 2 625 14 0 8 -67 74 -150 146 l-150 132 1 1106 1 1107 144 133 c79
73 144 140 144 148 0 12 -61 14 -415 14 l-415 0 -14 -22 c-8 -13 -208 -399
-446 -858 -237 -459 -434 -838 -438 -842 -4 -4 -204 369 -446 827 -241 459
-447 848 -457 864 l-19 31 -400 0 c-378 0 -400 -1 -400 -18z"/>
<path d="M428 2882 c-265 -121 -388 -182 -388 -192 0 -9 50 -55 110 -103 l110
-87 0 -542 -1 -543 -114 -103 c-63 -57 -115 -110 -115 -118 0 -12 86 -14 585
-14 476 0 585 2 585 13 0 7 -83 65 -185 128 l-185 114 3 535 2 535 55 29 c107
58 246 46 419 -35 47 -22 88 -36 92 -32 3 5 45 124 92 265 l85 258 -64 20
c-95 29 -233 53 -275 47 -74 -10 -190 -116 -333 -306 l-71 -94 -3 201 c-1 111
-6 202 -10 201 -4 0 -181 -80 -394 -177z"/>
</g>
</svg>
